<svg xmlns="http://www.w3.org/2000/svg" viewBox="0 0 452.06 455.18">
  <defs>
    <style>
      .cls-1 {
        <!-- fill: #231f20; -->
        fill: #0f172a;
      }
    </style>
  </defs>
  <g id="Layer_2" data-name="Layer 2">
    <g id="Layer_1-2" data-name="Layer 1">
      <g>
        <path class="cls-1" d="M443.38,167a179.7,179.7,0,0,1,4.8,19.81c.11.61.24,1.21.33,1.81a4.37,4.37,0,0,1-1.54,4c-.62.57-1.29,1.09-1.93,1.65-3.13,2.75-6.29,5.48-9.38,8.28-4.15,3.73-8.35,7.4-12.51,11.11-4.45,4-8.91,7.89-13.35,11.87-2.12,1.9-4.32,3.73-6.43,5.66-4.32,4-8.75,7.79-13.11,11.7-2,1.81-4.15,3.53-6.1,5.41-2.2,2.12-4.59,4-6.84,6.07-4.18,3.83-8.47,7.54-12.7,11.32-1.78,1.6-3.58,3.17-5.36,4.77a3.4,3.4,0,0,1-2.15,1c.12-2.32.23-4.62.37-6.92q1-16.86,2-33.73.81-13.75,1.6-27.51c.31-5.36.66-10.73,1-16.09q.84-14.1,1.65-28.22.82-14,1.64-27.94.57-9.66,1.15-19.33.88-14.89,1.76-29.77.78-13.34,1.55-26.68c0-.47.08-.93.14-1.54A8,8,0,0,1,372.33,55a37.58,37.58,0,0,1,5.2,4.56c2.27,2.19,4.56,4.36,6.8,6.58A228,228,0,0,1,418,108.69c3.26,5.31,6.28,10.75,9.11,16.3,2.21,4.34,4.24,8.75,6.21,13.2.47,1.08.84,2.21,1.26,3.31a10.42,10.42,0,0,0,1.44,3.42l6.36,18.5A9.53,9.53,0,0,0,443.38,167Z"/>
        <path class="cls-1" d="M146.28,14.32l10.4-3.57a.65.65,0,0,0,.11.22l-10.43,3.58A2.09,2.09,0,0,1,146.28,14.32Z"/>
        <path class="cls-1" d="M294.76,445.1l-.09-.26,9.33-3.22.1.27Z"/>
        <path class="cls-1" d="M436.06,144.92a10.42,10.42,0,0,1-1.44-3.42l.24-.06Z"/>
        <path class="cls-1" d="M443.38,167a9.53,9.53,0,0,1-1-3.59l1.2,3.49-.13,0Z"/>
        <path class="cls-1" d="M156.79,11a.65.65,0,0,1-.11-.22l2.93-1a1.47,1.47,0,0,0,.1.22Z"/>
        <path class="cls-1" d="M142.34,15.93a1,1,0,0,0-.06-.23l2.67-.92A.7.7,0,0,1,145,15Z"/>
        <path class="cls-1" d="M145,15a.7.7,0,0,0-.05-.25l1.33-.46a2.09,2.09,0,0,0,.08.23A4.42,4.42,0,0,1,145,15Z"/>
        <path class="cls-1" d="M258.63,316q3.31,9.66,6.64,19.3a8.58,8.58,0,0,1,.59,2.18,2.3,2.3,0,0,1-1.49,2.58,5.36,5.36,0,0,1-.79.3c-2.77.75-5.48,1.64-8.3,2.22-3.45.71-6.87,1.53-10.34,2.15a117.38,117.38,0,0,1-19.89,1.6c-2.33,0-4.69-.08-7-.26a120.92,120.92,0,0,1-15.72-2.24,105.38,105.38,0,0,1-11.43-3.09,130.91,130.91,0,0,1-18.6-7.77,113,113,0,0,1-11.2-6.56,114.79,114.79,0,0,1-21.55-18.6A123.21,123.21,0,0,1,123.87,286a100.08,100.08,0,0,1-7.46-15.25,129,129,0,0,1-6.83-27.58,118,118,0,0,1,9.94-65.06,116.82,116.82,0,0,1,7.29-13.37q3.08-4.81,6.58-9.33a116.64,116.64,0,0,1,9-10.23,120,120,0,0,1,14-12.1,137.65,137.65,0,0,1,12.2-7.79,117.3,117.3,0,0,1,26.72-11.13,78.12,78.12,0,0,1,12.09-2.67,123.63,123.63,0,0,1,13.3-1.27c3.28-.06,6.57,0,9.85.14a119.26,119.26,0,0,1,15.07,1.85q6,1.13,11.77,2.82a154.14,154.14,0,0,1,15.17,5.34,12.37,12.37,0,0,1,1.85,1,2.72,2.72,0,0,1,1.26,3.41,22,22,0,0,1-1.66,3.74c-2.83,5.48-5.53,11-8.16,16.59-1.64,3.49-3.32,7-5,10.46-1,2.08-1.94,4.18-2.86,6.29-1.46,3.32-3,4.06-6.35,2.71a94.76,94.76,0,0,0-12.64-3.92l-.41-.08a93,93,0,0,0-13.42-1.41,64.47,64.47,0,0,0-22,3.48,63.38,63.38,0,0,0-18.39,9.62,71.21,71.21,0,0,0-15,15.5,72.18,72.18,0,0,0-7.18,12.44A64.76,64.76,0,0,0,157,228.52a74.61,74.61,0,0,0,4.19,23A67.51,67.51,0,0,0,174.5,274.2,68.87,68.87,0,0,0,189.67,287a69.35,69.35,0,0,0,24.6,9.41,67,67,0,0,0,18.21.76c2.33-.22,4.66-.47,7-.92a54,54,0,0,0,7.69-2.32c2.84-1,3.66-.62,4.64,2.22q3.42,9.92,6.83,19.84Z"/>
        <path class="cls-1" d="M95.23,183.43c0,1.1-.08,2.21-.15,3.32q-.9,15.45-1.82,30.9-.63,10.57-1.25,21.16-1,16.5-1.93,33-.72,12.42-1.45,24.83-.85,14.53-1.7,29.07l-1.47,25.11q-1,16.37-1.91,32.74c-.36,6.24-.72,12.48-1.09,18.87a70.46,70.46,0,0,1-6.08-5c-3.54-3.1-6.93-6.37-10.25-9.72a230,230,0,0,1-22-25.78,227,227,0,0,1-12.58-19.14q-4.86-8.29-9-17A228.15,228.15,0,0,1,12,299.58a231,231,0,0,1-7.1-25.95c-.35-1.66-.64-3.34-1.07-5A6.17,6.17,0,0,1,6,262l1.81-1.55c3.35-2.94,6.74-5.84,10-8.82,4.28-3.87,8.63-7.65,12.93-11.49s8.7-7.7,13-11.57,8.56-7.58,12.81-11.41c2.23-2,4.56-3.89,6.72-6s4.45-3.88,6.63-5.87c4.18-3.83,8.47-7.53,12.69-11.32,2.16-2,4.4-3.8,6.52-5.79a44.41,44.41,0,0,1,5.25-4.43C94.63,183.58,94.82,183.36,95.23,183.43Z"/>
        <path class="cls-1" d="M1.47,247.62a11.54,11.54,0,0,1-1.12-5.14A287.89,287.89,0,0,1,.46,212C1,204.52,1.76,197.13,3,189.77A221.44,221.44,0,0,1,7.85,167q2.21-8.13,5-16.05c2.15-6.19,4.6-12.25,7.3-18.21,2.3-5.06,4.75-10,7.42-14.91q3.77-6.87,7.87-13.54c1.21-2,2.54-3.83,3.72-5.81a6.18,6.18,0,0,1,6-3.27c4.35.27,8.7.44,13,.89.7.08,1.41.06,2.11.11,4.59.28,9.18.52,13.76.86,5.75.43,11.51.74,17.26,1.16,2.95.21,5.9.31,8.84.54,5.7.45,11.41.75,17.12,1.12s11.6.72,17.4,1.13c2.94.21,5.89.34,8.84.54,5.65.38,11.31.73,17,1.11,1.25.09,2.48.28,3.72.42,0,.38-.28.5-.49.68-2.91,2.58-5.85,5.13-8.74,7.73-4.45,4-9,8-13.44,12-1.89,1.69-3.8,3.35-5.68,5-4.62,4.13-9.29,8.18-13.88,12.33-4.17,3.77-8.39,7.5-12.61,11.21-4.43,3.9-8.88,7.79-13.24,11.78-2,1.84-4.1,3.57-6.11,5.4-4.43,4-9,8-13.44,12-2,1.75-4,3.45-5.9,5.21-4.5,4.11-9.1,8.11-13.64,12.17-1.86,1.65-3.75,3.26-5.59,4.93-4.5,4.11-9.12,8.09-13.65,12.17-2,1.82-4.1,3.57-6.11,5.39-4.44,4-9,8-13.44,12-1.85,1.65-3.75,3.26-5.57,4.94-2.41,2.24-4.91,4.36-7.36,6.55-1,.87-1.91,1.79-2.91,2.64A1.3,1.3,0,0,1,1.47,247.62Z"/>
        <path class="cls-1" d="M145,15a4.42,4.42,0,0,0,1.36-.48L156.79,11l2.92-1c5.7-1.76,11.48-3.27,17.29-4.6,2.69-.62,5.4-1.24,8.12-1.76a5.17,5.17,0,0,1,5,1.54c1.46,1.54,2.87,3.12,4.27,4.72,3.73,4.24,7.44,8.5,11.17,12.76q8.89,10.15,17.79,20.3,6,6.81,11.94,13.59l17.63,20.07,13.24,15.09c.43.49.95.91,1.41,1.38a1.8,1.8,0,0,1,.65,2c-.28.73-.91,1.07-2,1-6.25-.74-12.53-.87-18.79-1.35-2.48-.19-5-.29-7.44-.45-6.08-.4-12.17-.73-18.24-1.2-2.76-.22-5.52-.29-8.28-.5-5.89-.46-11.78-.75-17.67-1.17-2.81-.2-5.62-.31-8.42-.52-5.89-.46-11.79-.78-17.68-1.16-5.56-.36-11.13-.71-16.69-1.08-5.94-.4-11.89-.75-17.83-1.17-2.71-.2-5.42-.29-8.13-.5-5.94-.45-11.88-.78-17.82-1.17-2.62-.18-5.24-.32-7.86-.49-6.08-.41-12.16-.72-18.24-1.2-2.62-.2-5.24-.28-7.85-.49-5.94-.46-11.88-.82-17.83-1.15-.88,0-1.77-.12-2.65-.19a3.69,3.69,0,0,1-2.44-1A24.06,24.06,0,0,1,54,79.13c2.56-2.87,5-5.82,7.68-8.62C65.27,66.69,69,63,72.86,59.44c2.13-2,4.37-3.83,6.56-5.73,5.39-4.67,11.09-8.92,16.91-13,3.76-2.65,7.7-5,11.55-7.51,5.62-3.62,11.6-6.54,17.5-9.63,5.5-2.89,11.22-5.26,17-7.6Z"/>
        <path class="cls-1" d="M102.9,289.24c2.41,2.73,4.6,5.2,6.77,7.68l9,10.2,17.8,20.31,13.06,14.87,18,20.52c3.41,3.89,6.85,7.78,10.26,11.67q9.18,10.47,18.36,20.94c3.54,4,7.1,8.06,10.65,12.1q8.94,10.2,17.88,20.41,6.63,7.55,13.27,15.07,4.43,5,8.84,10.1c.11.14.19.31.35.55a8.18,8.18,0,0,1-3.73,1.19A55.52,55.52,0,0,1,237,455c-2.16,0-4.31.17-6.47.17-4.26,0-8.53,0-12.79-.17-2.85-.14-5.72-.22-8.57-.49-5.18-.49-10.37-1-15.51-1.78-4.4-.68-8.8-1.45-13.15-2.36-4.14-.87-8.25-1.88-12.34-3-3.62-1-7.22-2.07-10.79-3.24q-7.65-2.49-15.09-5.54-6.66-2.72-13.14-5.87c-5.87-2.88-11.65-5.93-17.28-9.28-3.11-1.85-6.23-3.71-9.25-5.72a26.19,26.19,0,0,1-5-3.62,7.42,7.42,0,0,1-2.06-5,50.65,50.65,0,0,1,.22-5.08c.62-10.39,1.29-20.78,1.91-31.18q1.09-18.06,2.13-36.12l1.47-25c.37-6.4.72-12.79,1.12-19.19C102.46,291.59,102.7,290.58,102.9,289.24Z"/>
        <path class="cls-1" d="M304,441.62l-9.33,3.22c-1.8.52-3.62,1-5.41,1.57a153.63,153.63,0,0,1-16,4c-2.16.45-4.3,1-6.49,1.24a5.6,5.6,0,0,1-5.25-2.05c-5.23-6.07-10.54-12.07-15.82-18.09q-11.92-13.62-23.84-27.23-8.29-9.46-16.6-18.91Q194.67,373.3,184,361.19a6.64,6.64,0,0,1-1.22-2c1,0,1.82,0,2.63.11,2.57.38,5.15.32,7.72.51,6.13.46,12.26.8,18.38,1.21,2.57.17,5.15.28,7.72.48,6,.46,12.06.79,18.1,1.19,2.66.17,5.33.29,8,.49,5.88.46,11.78.77,17.67,1.17,2.76.19,5.52.3,8.28.52,5.94.46,11.88.76,17.82,1.18,2.81.2,5.62.29,8.42.51,5.84.46,11.69.76,17.54,1.15,5.61.37,11.22.71,16.84,1.09,5.89.4,11.78.74,17.67,1.16,2.81.2,5.61.33,8.42.52,5.89.4,11.79.71,17.68,1.17,2.76.22,5.52.32,8.27.51q7.86.51,15.71,1c.18,0,.35.05.63.09-.5.67-.9,1.31-1.39,1.86-2.42,2.68-4.73,5.46-7.21,8.1-3.72,4-7.54,7.83-11.5,11.57-2,1.87-4.07,3.61-6,5.47-2.4,2.24-5.06,4.18-7.55,6.31s-5.47,4.1-8.17,6.2c-3.45,2.69-7.19,4.92-10.8,7.36-5.15,3.47-10.66,6.29-16.1,9.26a220,220,0,0,1-26.9,11.89C304.42,441.4,304.21,441.52,304,441.62Z"/>
        <path class="cls-1" d="M349.55,166.1c-2.59-2.93-5-5.67-7.46-8.43-2.83-3.22-5.64-6.45-8.47-9.68q-9.12-10.41-18.27-20.83c-3.76-4.28-7.55-8.55-11.31-12.83q-9.24-10.5-18.47-21-8.94-10.2-17.89-20.41c-3.45-3.93-6.92-7.84-10.37-11.77q-7.89-9-15.76-18L231,31.17q-7.87-9-15.76-18C212,9.45,208.65,5.71,205.36,2c-.2-.23-.51-.4-.55-.89,1.82-.17,3.62-.41,5.43-.5,4.22-.22,8.43-.44,12.65-.54,3.23-.06,6.47,0,9.7.13,3,.09,6,.23,9,.48,5.09.44,10.18,1,15.23,1.73,4.54.69,9.07,1.47,13.58,2.38,4,.82,8.06,1.8,12.05,2.85q5.6,1.47,11.1,3.23,7.59,2.43,15,5.39c4.63,1.85,9.2,3.84,13.69,6,4.1,2,8.17,4.08,12.16,6.28,6.31,3.48,12.42,7.3,18.4,11.33.71.47,1.37,1,2.05,1.5a4.7,4.7,0,0,1,2,4c0,1.84-.13,3.67-.24,5.51q-.82,14.17-1.67,28.36c-.33,5.46-.68,10.91-1,16.37q-.76,13.41-1.52,26.81-.56,9.67-1.14,19.34c-.38,6.68-.75,13.36-1.16,20C350,163.15,349.76,164.5,349.55,166.1Z"/>
        <path class="cls-1" d="M288.35,352a1.88,1.88,0,0,1,.18-.36c3.11-2.79,6.2-5.58,9.32-8.35,4.76-4.24,9.58-8.42,14.3-12.71,1.9-1.73,3.9-3.36,5.78-5.12,2.43-2.28,5-4.39,7.47-6.62,4.1-3.71,8.26-7.35,12.39-11,2.27-2,4.63-4,6.83-6.07,2-1.88,4.1-3.57,6.11-5.4,4.44-4,9-8,13.45-12,2-1.77,4-3.51,6-5.31,4.51-4.1,9.11-8.09,13.65-12.15,1.85-1.66,3.75-3.26,5.59-4.93,4.62-4.19,9.32-8.29,14-12.43,1.82-1.62,3.7-3.18,5.47-4.85,2.42-2.28,5-4.39,7.47-6.62,4.1-3.7,8.27-7.34,12.4-11,4.52-4,9.07-8,13.55-12.06a64.32,64.32,0,0,0,5.89-5.43,1.83,1.83,0,0,1,2.15-.64,1.91,1.91,0,0,1,1.15,1.94c.24,8.1.77,16.19.5,24.31a231.58,231.58,0,0,1-2.2,25.9q-1.33,9.3-3.45,18.46-2.35,10.2-5.62,20.13c-1.3,3.94-2.7,7.83-4.17,11.71-2.32,6.12-5,12.1-7.83,18-.78,1.61-1.59,3.2-2.46,4.77-2.08,3.79-4.16,7.58-6.37,11.3-2.06,3.48-4.27,6.87-6.34,10.34-.39.64-.85,1.24-1.28,1.86a5.51,5.51,0,0,1-5.09,2.43c-2.67-.13-5.33-.33-8-.52-4.82-.35-9.65-.52-14.46-.92-2.85-.23-5.71-.26-8.56-.55s-5.71-.3-8.56-.53c-5.79-.47-11.59-.77-17.39-1.14s-11.42-.73-17.12-1.11-11.6-.71-17.39-1.13c-2.9-.21-5.81-.34-8.71-.53q-8.28-.56-16.56-1.07A4.94,4.94,0,0,1,288.35,352Z"/>
      </g>
    </g>
  </g>
</svg>
